<?xml version="1.0" standalone="no"?>
<!DOCTYPE svg PUBLIC "-//W3C//DTD SVG 20010904//EN"
 "http://www.w3.org/TR/2001/REC-SVG-20010904/DTD/svg10.dtd">
<svg version="1.0" xmlns="http://www.w3.org/2000/svg"
 width="151.000000pt" height="151.000000pt" viewBox="0 0 151.000000 151.000000"
 preserveAspectRatio="xMidYMid meet">
<metadata>
Created by potrace 1.14, written by Peter Selinger 2001-2017
</metadata>
<g transform="translate(0.000000,151.000000) scale(0.100000,-0.100000)"
fill="#000000" stroke="none">
<path d="M479 1470 c-99 -91 -128 -122 -134 -148 -3 -15 -25 -48 -49 -74 -24
-27 -42 -48 -39 -48 3 0 0 -7 -7 -15 -7 -8 -9 -15 -6 -15 4 0 -2 -13 -13 -29
-20 -27 -30 -66 -35 -136 -2 -16 -4 -34 -6 -40 -5 -18 -10 -68 -15 -160 -8
-146 -13 -210 -15 -212 -1 -2 -3 -11 -4 -20 -1 -10 -4 -22 -7 -28 -5 -9 -4
-57 4 -205 1 -30 9 -66 17 -80 8 -14 14 -28 15 -31 0 -4 16 -27 35 -50 39 -49
47 -85 23 -111 -9 -10 -12 -18 -7 -18 5 -1 -1 -9 -13 -19 -12 -10 -19 -21 -16
-25 4 -3 216 -6 472 -6 256 0 461 4 455 8 -5 5 -30 16 -55 26 -68 25 -82 45
-83 118 -1 67 7 86 42 93 12 2 27 7 33 10 5 4 35 8 66 10 30 1 59 8 63 14 4 7
18 13 31 15 14 1 29 5 35 8 5 4 22 5 37 4 41 -5 65 17 62 56 -2 18 -4 33 -5
33 -1 0 -3 29 -5 65 -2 36 -6 81 -10 100 -3 19 -7 63 -9 97 -1 34 -8 68 -14
76 -7 7 -9 17 -5 20 3 4 1 7 -6 7 -7 0 -10 4 -7 9 4 5 1 11 -6 13 -13 5 -20
38 -8 38 5 0 6 15 3 33 -7 42 -11 62 -13 62 -1 0 -3 15 -5 33 -2 19 -16 58
-30 89 -15 30 -25 63 -22 73 3 11 -1 24 -9 31 -8 6 -14 20 -14 31 0 43 -78
166 -130 204 -8 7 -28 24 -45 38 -16 14 -35 26 -41 26 -5 0 -25 16 -44 35
l-34 35 -191 0 -192 0 -44 -40z"/>
</g>
</svg>
